<svg width="12" height="12" viewBox="0 0 12 12" fill="none" xmlns="http://www.w3.org/2000/svg">
<g clip-path="url(#clip0_1_4365)">
<path fill-rule="evenodd" clip-rule="evenodd" d="M9.375 1.125H2.625C1.79657 1.125 1.125 1.79657 1.125 2.625V9.375C1.125 10.2034 1.79657 10.875 2.625 10.875H9.375C10.2034 10.875 10.875 10.2034 10.875 9.375V2.625C10.875 1.79657 10.2034 1.125 9.375 1.125ZM2.625 0C1.17525 0 0 1.17525 0 2.625V9.375C0 10.8247 1.17525 12 2.625 12H9.375C10.8247 12 12 10.8247 12 9.375V2.625C12 1.17525 10.8247 0 9.375 0H2.625Z" fill="#C2C2C2"/>
<path fill-rule="evenodd" clip-rule="evenodd" d="M1.56599 7.40834C1.28974 8.00958 1.125 8.70628 1.125 9.375C1.125 9.68566 0.87316 9.9375 0.5625 9.9375C0.25184 9.9375 0 9.68566 0 9.375C0 8.53165 0.205204 7.67543 0.543727 6.93865C0.879506 6.20783 1.36753 5.54983 1.96979 5.14852C2.59173 4.73409 3.35612 4.58857 4.11834 4.96796C4.83919 5.32675 5.45375 6.10592 5.95516 7.28529C6.42577 8.39223 6.77277 8.54822 6.906 8.57012C6.98562 8.5832 7.09545 8.57119 7.2687 8.49991C7.4293 8.43383 7.5931 8.33994 7.79946 8.22167C7.82528 8.20687 7.85178 8.19169 7.87901 8.17613L7.8862 8.17202C8.31345 7.92793 8.97514 7.54989 9.72793 7.73424C10.4935 7.9217 11.1374 8.62374 11.755 9.88264C11.8918 10.1615 11.7766 10.4986 11.4977 10.6354C11.2188 10.7722 10.8818 10.657 10.745 10.3781C10.1572 9.17989 9.71138 8.88842 9.46035 8.82695C9.20082 8.7634 8.9224 8.8757 8.43705 9.15297C8.41202 9.16727 8.38625 9.18209 8.35983 9.19727C8.16324 9.31031 7.93062 9.44406 7.69676 9.54029C7.42402 9.6525 7.09031 9.7405 6.72356 9.68022C5.96405 9.5554 5.40696 8.8712 4.91984 7.72546C4.46352 6.65214 3.98984 6.16065 3.61705 5.9751C3.28564 5.81014 2.95099 5.84658 2.59362 6.08472C2.21656 6.33596 1.84498 6.80112 1.56599 7.40834Z" fill="#C2C2C2"/>
<path d="M9 4.125C9 4.74632 8.49632 5.25 7.875 5.25C7.25368 5.25 6.75 4.74632 6.75 4.125C6.75 3.50368 7.25368 3 7.875 3C8.49632 3 9 3.50368 9 4.125Z" fill="#C2C2C2"/>
</g>
<defs>
<clipPath id="clip0_1_4365">
<rect width="12" height="12" fill="white"/>
</clipPath>
</defs>
</svg>
