<svg width="16" height="16" viewBox="0 0 16 16" fill="none" xmlns="http://www.w3.org/2000/svg">
<g clip-path="url(#clip0_1_4369)">
<path d="M7.33301 2.66667H4.53301C3.4129 2.66667 2.85285 2.66667 2.42503 2.88465C2.0487 3.0764 1.74274 3.38236 1.55099 3.75869C1.33301 4.18651 1.33301 4.74656 1.33301 5.86667V11.4667C1.33301 12.5868 1.33301 13.1468 1.55099 13.5746C1.74274 13.951 2.0487 14.2569 2.42503 14.4487C2.85285 14.6667 3.4129 14.6667 4.53301 14.6667H10.133C11.2531 14.6667 11.8132 14.6667 12.241 14.4487C12.6173 14.2569 12.9233 13.951 13.115 13.5746C13.333 13.1468 13.333 12.5868 13.333 11.4667V8.66667M5.33299 10.6667H6.44935C6.77547 10.6667 6.93853 10.6667 7.09198 10.6298C7.22803 10.5972 7.35809 10.5433 7.47739 10.4702C7.61194 10.3877 7.72724 10.2724 7.95785 10.0418L14.333 3.66667C14.8853 3.11438 14.8853 2.21895 14.333 1.66667C13.7807 1.11438 12.8853 1.11438 12.333 1.66667L5.95783 8.04183C5.72723 8.27243 5.61193 8.38773 5.52947 8.52229C5.45637 8.64158 5.40249 8.77164 5.36983 8.90769C5.33299 9.06114 5.33299 9.2242 5.33299 9.55032V10.6667Z" stroke="#B1B1B1" stroke-width="1.5" stroke-linecap="round" stroke-linejoin="round"/>
</g>
<defs>
<clipPath id="clip0_1_4369">
<rect width="16" height="16" fill="white"/>
</clipPath>
</defs>
</svg>
