<svg width="16" height="16" viewBox="0 0 16 16" fill="none" xmlns="http://www.w3.org/2000/svg">
<path d="M7.51265 2.94077C7.66699 2.59451 7.74419 2.42139 7.85165 2.36807C7.94499 2.32175 8.05459 2.32175 8.14792 2.36807C8.25539 2.42139 8.33259 2.59451 8.48692 2.94077L9.71625 5.69872C9.76192 5.80108 9.78472 5.85226 9.82005 5.89145C9.85125 5.92613 9.88945 5.95387 9.93205 5.97286C9.98025 5.99433 10.036 6.00021 10.1475 6.01197L13.1503 6.32891C13.5273 6.36869 13.7158 6.38859 13.7997 6.47431C13.8726 6.54877 13.9065 6.65304 13.8913 6.75613C13.8738 6.8748 13.733 7.00167 13.4514 7.25547L11.2083 9.27693C11.1251 9.35193 11.0834 9.38947 11.0571 9.43513C11.0337 9.4756 11.0191 9.52047 11.0143 9.56687C11.0087 9.61933 11.0203 9.67413 11.0436 9.7838L11.6701 12.7376C11.7488 13.1085 11.7881 13.2939 11.7325 13.4001C11.6842 13.4925 11.5955 13.5569 11.4928 13.5743C11.3745 13.5943 11.2103 13.4997 10.8819 13.3103L8.26625 11.8016C8.16919 11.7456 8.12065 11.7177 8.06905 11.7067C8.02339 11.697 7.97619 11.697 7.93052 11.7067C7.87892 11.7177 7.83039 11.7456 7.73332 11.8016L5.11767 13.3103C4.78928 13.4997 4.62509 13.5943 4.50681 13.5743C4.40407 13.5569 4.31538 13.4925 4.26709 13.4001C4.21149 13.2939 4.25082 13.1085 4.32948 12.7376L4.95599 9.7838C4.97924 9.67413 4.99087 9.61933 4.98535 9.56687C4.98046 9.52047 4.96588 9.4756 4.94255 9.43513C4.91618 9.38947 4.87455 9.35193 4.79131 9.27693L2.54823 7.25547C2.26662 7.00167 2.12581 6.8748 2.10831 6.75613C2.09311 6.65304 2.12698 6.54877 2.19987 6.47431C2.28379 6.38859 2.47229 6.36869 2.84929 6.32891L5.85215 6.01197C5.96361 6.00021 6.01933 5.99433 6.06751 5.97286C6.11015 5.95387 6.14832 5.92613 6.17956 5.89145C6.21486 5.85226 6.23767 5.80108 6.28331 5.69872L7.51265 2.94077Z" fill="#2BCFA1" stroke="#2BCFA1" stroke-width="1.5" stroke-linecap="round" stroke-linejoin="round"/>
</svg>
